# xmcd CD database file
#
# Track frame offsets:
#	150
#	13405
#	24087
#	39525
#	53220
#	63777
#	79205
#	90352
#	104647
#	120010
#	138960
#	158895
#	175510
#	189602
#
# Disc length: 2691 seconds
#
# Revision: 0
# Processed by: cddbd v1.5.2PL0 Copyright (c) Steve Scherf et al.
# Submitted via: CDex 1.50beta9
#
DISCID=a50a810e
DTITLE=Heather Myles - Sweet Little Dangerous - Live At The Bottom Line
DYEAR=1996
DGENRE=Country
TTITLE0=Introduction - Read You All Wrong
TTITLE1=Gonna Have Love
TTITLE2=Other Side Of Town
TTITLE3=Sweet Little Dangerous
TTITLE4=If The Truth Hurts
TTITLE5=True Love Won't Let You Down
TTITLE6=Lovin' The Bottle
TTITLE7=When The Tingle Becomes The Chill
TTITLE8=Love Me A Little Bit Longer
TTITLE9=Rum And Rodeo
TTITLE10=Worried Wife Blues
TTITLE11=Changes
TTITLE12=Walk Through This World With Me
TTITLE13=Cadillac Cowboy
EXTD=YEAR: 1996
EXTT0=
EXTT1=
EXTT2=
EXTT3=
EXTT4=
EXTT5=
EXTT6=
EXTT7=
EXTT8=
EXTT9=
EXTT10=
EXTT11=
EXTT12=
EXTT13=
PLAYORDER=
